<?xml version="1.0" standalone="no"?>
<!DOCTYPE svg PUBLIC "-//W3C//DTD SVG 20010904//EN"
 "http://www.w3.org/TR/2001/REC-SVG-20010904/DTD/svg10.dtd">
<svg version="1.0" xmlns="http://www.w3.org/2000/svg"
 width="500.000000pt" height="500.000000pt" viewBox="0 0 500.000000 500.000000"
 preserveAspectRatio="xMidYMid meet">
<metadata>
Created by potrace 1.14, written by Peter Selinger 2001-2017
</metadata>
<g transform="translate(0.000000,500.000000) scale(0.100000,-0.100000)"
fill="#000000" stroke="none">
<path d="M2205 4695 c-130 -15 -304 -49 -378 -74 -68 -23 -79 -44 -74 -142 7
-137 80 -239 234 -325 207 -115 323 -226 379 -362 12 -30 24 -50 27 -45 16 29
21 126 22 428 l0 340 38 85 c21 47 41 91 44 98 7 16 -139 15 -292 -3z"/>
<path d="M3131 4603 c7 -10 36 -43 64 -73 94 -101 167 -225 219 -368 46 -129
55 -136 81 -67 27 71 7 200 -55 349 -34 82 -35 82 -224 146 -105 35 -102 35
-85 13z"/>
<path d="M1610 4541 c-63 -26 -146 -64 -183 -85 l-69 -39 4 -81 c6 -134 40
-186 210 -314 140 -105 214 -219 238 -365 15 -85 25 -75 42 43 18 120 2 222
-68 426 -51 150 -58 180 -61 264 -3 62 1 113 10 148 10 36 11 52 3 51 -6 0
-63 -22 -126 -48z"/>
<path d="M3483 4479 c153 -359 184 -578 116 -842 -88 -347 -301 -628 -592
-782 -160 -85 -306 -122 -522 -131 -273 -13 -599 41 -970 159 -77 25 -163 50
-192 57 -29 6 -52 15 -52 18 4 24 -10 34 -83 56 -196 59 -438 80 -608 51 -58
-9 -134 -28 -169 -41 -35 -13 -68 -24 -74 -24 -11 0 200 128 273 165 105 53
321 103 516 120 112 9 115 13 63 70 -131 142 -297 211 -561 230 l-86 7 -36
-64 c-48 -87 -129 -292 -160 -408 -58 -218 -71 -333 -71 -622 0 -349 -3 -344
128 -181 124 155 199 224 300 274 82 42 217 82 317 94 61 7 199 -7 300 -31 83
-20 209 -80 283 -135 72 -53 238 -244 272 -312 27 -54 33 -115 13 -135 -23
-23 -74 -14 -122 23 -25 19 -69 47 -98 62 -46 24 -64 28 -135 27 -73 0 -90 -4
-156 -37 -125 -62 -192 -145 -227 -282 -64 -250 34 -530 269 -766 134 -133
269 -200 538 -264 81 -20 171 -46 200 -59 56 -26 139 -97 148 -127 8 -24 25
-15 25 14 1 12 16 67 35 122 18 55 33 100 32 101 -1 1 -63 -5 -137 -14 -221
-25 -423 4 -585 85 -264 132 -410 344 -422 613 -3 58 -1 121 5 140 l10 35 1
-40 c4 -117 58 -233 156 -330 125 -124 241 -169 435 -169 305 1 585 148 733
385 68 109 95 184 110 301 l14 103 13 -60 c14 -68 8 -265 -10 -328 -19 -63 -6
-52 38 36 50 99 77 198 92 339 25 220 -17 394 -134 563 -56 80 -61 89 -49 82
6 -4 78 -22 160 -41 83 -19 179 -48 214 -64 163 -74 283 -211 324 -369 26 -99
15 -220 -26 -307 -10 -22 -17 -41 -15 -43 7 -7 88 119 116 179 58 129 69 200
80 528 10 283 18 331 66 420 50 91 138 152 344 235 168 69 248 113 306 171 79
79 134 210 134 318 0 62 -2 66 -62 152 -72 100 -308 344 -415 428 -124 96
-424 276 -410 245z m397 -872 c0 -2 -10 -12 -22 -23 l-23 -19 19 23 c18 21 26
27 26 19z m-70 -81 c0 -2 -8 -10 -17 -17 -16 -13 -17 -12 -4 4 13 16 21 21 21
13z m-1619 -1167 c118 -59 203 -260 165 -391 -32 -110 -145 -196 -290 -221
-170 -29 -387 70 -465 212 -22 40 -22 44 -5 36 113 -49 213 -58 317 -28 72 20
156 92 193 165 28 55 34 153 15 218 -6 19 -11 36 -11 38 0 6 43 -10 81 -29z
m277 -408 c-3 -73 -9 -107 -26 -142 -37 -76 -87 -125 -167 -165 -63 -31 -86
-37 -162 -41 -94 -6 -173 13 -245 57 l-33 20 93 0 c296 0 493 131 518 345 11
92 27 39 22 -74z m-913 -430 c24 -20 30 -28 15 -20 -43 21 -111 81 -126 112
-13 25 -9 23 28 -15 24 -24 61 -59 83 -77z m-20 -31 c27 -27 47 -50 44 -50 -3
0 -27 23 -54 50 -27 28 -47 50 -44 50 3 0 27 -22 54 -50z"/>
<path d="M2186 2053 c-6 -14 -5 -15 5 -6 7 7 10 15 7 18 -3 3 -9 -2 -12 -12z"/>
<path d="M2160 2020 c-8 -5 -12 -12 -9 -15 4 -3 12 1 19 10 14 17 11 19 -10 5z"/>
<path d="M1065 4218 c-93 -74 -335 -325 -335 -347 0 -14 48 -27 215 -60 205
-40 257 -61 327 -131 43 -43 60 -69 72 -110 19 -65 20 -161 2 -212 -18 -49 0
-51 32 -4 45 67 64 135 64 231 0 161 -53 280 -211 475 -33 41 -75 101 -91 133
-17 31 -32 57 -33 57 -1 0 -20 -14 -42 -32z"/>
<path d="M4475 3343 c-6 -129 -4 -221 10 -395 28 -349 10 -513 -77 -715 -118
-271 -393 -535 -758 -726 -69 -36 -226 -111 -349 -167 -208 -94 -318 -147
-349 -168 -12 -8 2 -10 93 -12 25 0 16 -8 -65 -56 -92 -55 -133 -84 -127 -90
2 -2 70 30 152 71 146 73 172 84 161 66 -9 -14 21 -17 134 -15 154 3 293 19
390 44 19 5 55 12 80 15 25 4 77 15 115 25 70 18 189 37 255 39 19 1 37 5 40
9 3 4 23 13 45 19 l40 12 -29 -24 c-99 -80 -314 -173 -556 -240 -609 -168
-957 -353 -1119 -594 -48 -72 -104 -171 -99 -176 7 -7 272 15 378 31 710 109
1320 563 1654 1232 162 325 222 562 233 927 8 279 -27 518 -116 777 -37 109
-111 278 -121 278 -4 0 -11 -75 -15 -167z"/>
<path d="M905 2650 c-118 -30 -252 -99 -326 -167 -34 -32 -109 -115 -166 -185
-58 -71 -108 -128 -113 -128 -5 0 -7 -15 -4 -32 11 -65 66 -283 76 -302 10
-19 11 -19 30 5 28 34 64 107 104 212 63 165 111 245 198 332 133 132 259 185
443 185 151 0 288 -43 432 -135 20 -12 56 -26 80 -29 44 -7 44 -7 29 16 -45
69 -244 188 -373 223 -35 10 -116 18 -195 21 -113 3 -148 1 -215 -16z"/>
<path d="M1150 2425 c-111 -32 -228 -123 -275 -216 -53 -104 -69 -190 -70
-366 0 -136 -2 -156 -11 -125 -10 31 -12 -1 -13 -181 -1 -232 -15 -335 -51
-379 -18 -22 -17 -23 11 -63 38 -53 204 -216 196 -192 -32 91 -116 521 -117
593 0 37 27 43 40 8 5 -12 14 -25 20 -29 12 -7 9 8 -22 120 -11 39 -22 117
-25 175 -5 99 -4 110 26 200 92 274 251 410 480 410 67 0 184 -22 242 -45 10
-4 16 -1 16 9 0 8 -4 13 -9 10 -5 -3 -24 4 -42 15 -98 61 -284 87 -396 56z"/>
<path d="M2524 1298 l-19 -23 23 19 c21 18 27 26 19 26 -2 0 -12 -10 -23 -22z"/>
<path d="M2479 1263 c-13 -16 -12 -17 4 -4 16 13 21 21 13 21 -2 0 -10 -8 -17
-17z"/>
<path d="M2434 1234 c-18 -14 -18 -15 4 -4 12 6 22 13 22 15 0 8 -5 6 -26 -11z"/>
<path d="M2126 582 c19 -53 17 -121 -4 -162 -10 -19 -40 -49 -65 -67 -26 -17
-44 -34 -40 -36 7 -4 135 -26 241 -41 28 -4 30 1 36 82 2 44 0 62 -8 60 -15
-4 -59 46 -115 129 -52 76 -63 85 -45 35z"/>
</g>
</svg>
